<svg xmlns="http://www.w3.org/2000/svg" width="8.927" height="13.042" viewBox="0 0 8.927 13.042">
  <g id="_21" data-name="21" transform="translate(-5 -2)">
    <path id="Path_303" data-name="Path 303" d="M13.289,15.042A.626.626,0,0,1,13,14.97L9.463,13.164,5.925,14.97a.625.625,0,0,1-.62-.027A.655.655,0,0,1,5,14.39V3.467A1.451,1.451,0,0,1,6.435,2h6.057a1.451,1.451,0,0,1,1.435,1.467V14.39a.656.656,0,0,1-.3.554.627.627,0,0,1-.338.1Zm-3.826-3.26a.626.626,0,0,1,.287.072l2.9,1.48V3.467a.161.161,0,0,0-.159-.163H6.435a.161.161,0,0,0-.159.163v9.866l2.9-1.48A.626.626,0,0,1,9.463,11.781Z" transform="translate(0 0)" fill="#307aff"/>
    <path id="Path_304" data-name="Path 304" d="M10.314,6.33l.4.812.894.126-.647.634.152.89-.8-.421-.8.421.152-.89L9.02,7.268l.894-.126Z" transform="translate(-0.85 -1.133)" fill="#307aff"/>
  </g>
</svg>
