<svg xmlns="http://www.w3.org/2000/svg" width="15.069" height="16.628" viewBox="0 0 15.069 16.628">
  <path id="fi-rr-bell" d="M15.928,9.465,14.611,4.729a6.457,6.457,0,0,0-12.524.328L1.068,9.64A3.464,3.464,0,0,0,4.45,13.855h.772a3.464,3.464,0,0,0,6.789,0h.581a3.464,3.464,0,0,0,3.338-4.391ZM8.616,15.241a2.078,2.078,0,0,1-1.951-1.385h3.9A2.078,2.078,0,0,1,8.616,15.241Zm5.629-3.592a2.062,2.062,0,0,1-1.655.821H4.45A2.078,2.078,0,0,1,2.421,9.941L3.44,5.358A5.072,5.072,0,0,1,13.276,5.1l1.316,4.736a2.062,2.062,0,0,1-.348,1.814Z" transform="translate(-0.986 -0.002)" fill="#307aff"/>
</svg>
