<svg xmlns="http://www.w3.org/2000/svg" width="25.995" height="28.918" viewBox="0 0 25.995 28.918">
  <path id="Path_2568" data-name="Path 2568" d="M27.551,10.676h0l-8.665-7.6a4.332,4.332,0,0,0-5.777,0l-8.665,7.6A4.332,4.332,0,0,0,3,13.939V26.561a4.332,4.332,0,0,0,4.332,4.332h17.33a4.332,4.332,0,0,0,4.332-4.332V13.925a4.332,4.332,0,0,0-1.444-3.249Zm-8.665,17.33H13.109V20.785a1.444,1.444,0,0,1,1.444-1.444h2.888a1.444,1.444,0,0,1,1.444,1.444Zm7.221-1.444a1.444,1.444,0,0,1-1.444,1.444H21.774V20.785a4.332,4.332,0,0,0-4.332-4.332H14.553a4.332,4.332,0,0,0-4.332,4.332v7.221H7.333a1.444,1.444,0,0,1-1.444-1.444V13.925a1.444,1.444,0,0,1,.491-1.083L15.044,5.26a1.444,1.444,0,0,1,1.906,0l8.665,7.582a1.444,1.444,0,0,1,.491,1.083Z" transform="translate(-3 -1.976)" fill="#fff"/>
</svg>
