<svg id="Layer_1" data-name="Layer 1" xmlns="http://www.w3.org/2000/svg" viewBox="0 0 15 15"><defs><style>.cls-1{fill:#307aff;}</style></defs><g id="Group_81" data-name="Group 81"><path id="Rectangle_34" data-name="Rectangle 34" class="cls-1" d="M3,1A2,2,0,0,0,1,3v9a2,2,0,0,0,2,2h9a2,2,0,0,0,2-2V3a2,2,0,0,0-2-2H3M3,0h9a3,3,0,0,1,3,3v9a3,3,0,0,1-3,3H3a3,3,0,0,1-3-3V3A3,3,0,0,1,3,0Z" transform="translate(0 0)"/><path id="Line_25" data-name="Line 25" class="cls-1" d="M12.41,4.73H2.59v-1h9.82Z" transform="translate(0 0)"/><path id="Line_26" data-name="Line 26" class="cls-1" d="M12.41,8H2.59V7h9.82Z" transform="translate(0 0)"/><path id="Line_27" data-name="Line 27" class="cls-1" d="M9.13,11.27H2.59v-1H9.13Z" transform="translate(0 0)"/></g></svg>