<svg xmlns="http://www.w3.org/2000/svg" width="24.002" height="29.91" viewBox="0 0 24.002 29.91">
  <g id="layer1" transform="translate(-4 -1021.452)">
    <path id="path4087-4" d="M15.891,1.09l-.275.018-.5.023.051,1,.5-.023.256-.016.7.027.5.02.039-1-.5-.02-.725-.027h-.045Zm-1.859.154-.486.107-.791.186-.021.01-.02.01-.18.059-.475.156.313.949.477-.156L13,2.514l.77-.182.486-.115Zm4.205.063-.215.977.488.107.334.072.586.184.477.15.3-.953-.479-.15L19.121,1.5l-.021-.01h-.021l-.354-.078Zm-7.2.84-.439.236-.715.385-.02.01-.018.012-.158.1-.418.275L9.818,4l.418-.275.145-.092.691-.373.439-.236ZM21.2,2.281l-.461.889.443.23.3.158.518.33.422.268.537-.844-.422-.27L22,2.7l-.018-.012-.02-.012-.322-.164Zm-5.2.9a8.947,8.947,0,0,0-9,8.879c0,2.683,1.371,4.486,2.637,6.357A11.563,11.563,0,0,1,12.1,25.473V30.5a.5.5,0,0,0,.5.5h6.8a.5.5,0,0,0,.5-.5V25.473a11.563,11.563,0,0,1,2.463-7.053C23.629,16.549,25,14.746,25,12.063A8.947,8.947,0,0,0,16,3.184ZM8.385,3.8l-.365.34-.572.535-.016.016-.014.016-.145.16-.336.373.744.668.334-.371.133-.148L8.7,4.869l.365-.342Zm15.428.2-.672.736.369.336.217.2.006.01.447.482.34.367.732-.68-.34-.367-.451-.488-.016-.016-.016-.018-.248-.225ZM16,4.184a7.932,7.932,0,0,1,8,7.879c0,2.345-1.18,3.9-2.465,5.8A13.147,13.147,0,0,0,19,24.973H16.5V17.092a.5.5,0,1,0-1,0v7.881H13a13.147,13.147,0,0,0-2.539-7.113C9.18,15.959,8,14.408,8,12.063A7.932,7.932,0,0,1,16,4.184Zm0,1.3v0a6.508,6.508,0,0,0-6.5,6.473.5.5,0,1,0,1,0A5.492,5.492,0,0,1,16,6.488a.5.5,0,1,0,0-1Zm-9.754.588L5.98,6.5l-.408.652-.012.016-.01.021L5.445,7.4l-.227.445.891.453.227-.445.084-.166.008-.012.4-.641.266-.424Zm19.648.232-.838.547.271.42.15.232h0l.316.6.234.443.883-.469-.232-.441-.318-.6-.01-.02L26.342,7l-.174-.27ZM4.764,8.832l-.145.479-.238.783-.008.021,0,.021-.037.178-.1.49.98.2.1-.49.025-.133,0-.012L5.576,9.6l.145-.479ZM27.311,9.1l-.953.3.152.475.105.332.133.594.107.486.977-.217-.107-.488-.139-.615,0-.021-.008-.021-.111-.352ZM4.037,11.877l-.012.5L4,13.311l0,.023,0,.02,0,.066.033.5,1-.064L5,13.357l0-.021v-.01l.023-.926.012-.5Zm23.924.277-1,.039.02.5.018.459-.023.5-.025.5,1,.049.025-.5L28,13.182l0-.021,0-.023-.02-.482ZM5.1,14.771l-.971.238.119.484.227.928.006.021.006.02.016.043.16.475.947-.32-.16-.475-.01-.029-.221-.9Zm21.73.277-.111.49-.107.469-.146.451-.152.477.951.307.152-.475.152-.471.008-.021,0-.023.113-.492.111-.486ZM5.9,17.527l-.879.479.24.439.445.816.01.02.012.018.039.057.275.418.834-.553L6.6,18.8l-.027-.045-.01-.014-.424-.779Zm20.051.248-.234.445-.215.406-.268.418-.27.422.842.539.27-.42.279-.436.012-.02.01-.02.225-.428.234-.441ZM7.391,19.982l-.727.686.342.363.625.66.014.016.018.016.068.061.373.332.664-.746-.373-.332-.055-.051-.014-.012-.592-.629Zm17.014.2-.338.375-.307.332h0l-.367.336-.369.338.676.738.367-.338.4-.367.016-.014.016-.018.309-.336.34-.369ZM9.457,21.971l-.523.852.426.262.793.486.018.012.021.01.063.033.447.223.445-.9-.447-.223-.041-.02-.775-.477Zm12.834.146-.422.266-.395.25-.012.01-.422.217-.445.229.459.889.443-.229.463-.238.02-.012.02-.012.4-.256.422-.268ZM13.1,25.973h2.82a.5.5,0,0,0,.162,0H18.9V30H13.1Z" transform="translate(0 1020.362)" fill="#fff"/>
  </g>
</svg>
