<?xml version="1.0" encoding="UTF-8"?>
<svg width="25px" height="25px" viewBox="0 0 25 25" version="1.1" xmlns="http://www.w3.org/2000/svg" xmlns:xlink="http://www.w3.org/1999/xlink">
    <!-- Generator: sketchtool 56.3 (101010) - https://sketch.com -->
    <title>2F6E5780-5D47-43DB-9662-EE71030F404C</title>
    <desc>Created with sketchtool.</desc>
    <g id="Comps" stroke="none" stroke-width="1" fill="none" fill-rule="evenodd">
        <g id="IRM_Mobile_Alerts_1c" transform="translate(-23.000000, -73.000000)" fill="#FFFFFF" fill-rule="nonzero">
            <g id="Alert-message" transform="translate(0.000000, 48.307607)">
                <path d="M35.30575,49.5 C28.678333,49.5 23.30575,44.127417 23.30575,37.5 C23.30575,30.872583 28.678333,25.5 35.30575,25.5 C41.933167,25.5 47.30575,30.872583 47.30575,37.5 C47.30575,44.127417 41.933167,49.5 35.30575,49.5 Z M35.30575,48 C41.1047399,48 45.80575,43.2989899 45.80575,37.5 C45.80575,31.7010101 41.1047399,27 35.30575,27 C29.5067601,27 24.80575,31.7010101 24.80575,37.5 C24.80575,43.2989899 29.5067601,48 35.30575,48 Z M32.2031113,41.955071 L29.4186919,39.1706516 C28.7822532,38.5342129 28.7822532,37.5 29.4186919,36.8635613 C30.0551306,36.2271226 31.0893435,36.2271226 31.7257822,36.8635613 L32.9986597,38.1364387 C33.2373242,38.3751032 33.5555435,38.3751032 33.7146532,38.1364387 L38.8857177,33.044929 C39.5221564,32.4084903 40.5563694,32.4084903 41.1928081,33.044929 C41.8292468,33.6813677 41.8292468,34.7155806 41.1928081,35.3520194 L34.5102016,41.955071 C33.8737629,42.5915097 32.83955,42.5915097 32.2031113,41.955071 Z" id="irm-icon-success-outline"></path>
            </g>
        </g>
    </g>
</svg>