<svg xmlns="http://www.w3.org/2000/svg" xmlns:xlink="http://www.w3.org/1999/xlink" width="224.643" height="341.493" viewBox="0 0 224.643 341.493">
  <defs>
    <clipPath id="clip-path">
      <rect id="Rectangle_291" data-name="Rectangle 291" width="224.643" height="50.139" fill="none"/>
    </clipPath>
  </defs>
  <g id="Group_91" data-name="Group 91" transform="translate(-82.357 -148.2)">
    <g id="Group_85" data-name="Group 85">
      <g id="Group_4" data-name="Group 4" transform="translate(98 148.2)">
        <path id="Path_1" data-name="Path 1" d="M146.687,72.406c-5.946,23.01-21.174,28.263-37.375,39.411l0-.011a101.145,101.145,0,0,0-9.518,7.364c.363.369.722.734,1.081,1.109A123.667,123.667,0,0,1,133.3,185.285l0,.036c.486-.112.963-.234,1.425-.352a47,47,0,0,1,.576-13.343l.009.051a28.462,28.462,0,0,1,7.933-15.226c10.4-10.236,26.884-10.142,30.721-10.38,10.4-.712,6.394-9.067,6.22-15.549s2.491-6.395,3.294-9.056-4.308-6.488-4.308-6.488,4.4-2.438,5.592-4.3-1.378-4-2.171-5.953.75-4.089,5.19-7.246,4.753-4.971,1.822-8.921c-1.728-2.326-6.149-7.425-9.651-12.84-2.459-3.78-4.45-7.709-4.781-10.962-8.735-86.321-150.1-86.352-158.833,0-.33,3.254-2.332,7.182-4.781,10.962-3.5,5.415-7.928,10.514-9.655,12.84-2.93,3.95-2.618,5.771,1.822,8.921s5.993,5.292,5.2,7.246-3.374,4.084-2.175,5.953,5.6,4.3,5.6,4.3-5.106,3.822-4.308,6.488,3.459,2.574,3.285,9.056S7.15,145.36,17.545,146.072c3.847.238,20.33.144,30.731,10.38,5.79,5.694,9.7,14.591,8.494,28.517,17.715,4.556,47.516,5.356,71.055,1.22A118.073,118.073,0,0,0,96.848,124.11C76,102.214,52.57,102.332,44.836,72.406c-8.5-32.913,18.291-61.227,50.928-61.227,35.383,0,59.13,29.463,50.923,61.227" transform="translate(0.001 0.001)" fill="#f49e02" fill-rule="evenodd"/>
        <path id="Path_2" data-name="Path 2" d="M107.926,103.821a11.579,11.579,0,1,1,11.6-11.6V99.09h8.24V92.221a11.581,11.581,0,1,1,11.589,11.6h-6.866v30.005c-1.59,1.069-3.171,2.159-4.723,3.292v-33.3h-8.24v33.314c-1.552-1.137-3.133-2.234-4.738-3.313v-30Zm24.568-4.726h6.866a6.862,6.862,0,1,0-6.866-6.873Zm-24.568,0h6.866V92.221a6.86,6.86,0,1,0-6.866,6.873" transform="translate(-27.419 -32.535)" fill="#f26a94" fill-rule="evenodd"/>
        <path id="Path_8" data-name="Path 8" d="M98.954,117.839a5.719,5.719,0,0,1,1.609-11.323,232.052,232.052,0,0,0,33.151,2.373,231.985,231.985,0,0,0,33.146-2.373,5.719,5.719,0,1,1,1.61,11.323,243.577,243.577,0,0,1-34.756,2.508,243.581,243.581,0,0,1-34.76-2.508" transform="translate(-37.95 86.642)" fill="#16346f" fill-rule="evenodd"/>
        <path id="Path_9" data-name="Path 9" d="M100.877,120.929a5.713,5.713,0,1,1,1.166-11.366,230.858,230.858,0,0,0,23.821,1.216,230.9,230.9,0,0,0,23.822-1.216,5.713,5.713,0,1,1,1.165,11.366,241.253,241.253,0,0,1-24.987,1.307,241.229,241.229,0,0,1-24.987-1.307" transform="translate(-30.1 100.822)" fill="#4aaab0" fill-rule="evenodd"/>
        <path id="Path_10" data-name="Path 10" d="M98.758,112.634a13.809,13.809,0,0,0,26.427,0q-6.229.315-13.213.316t-13.213-.316" transform="translate(-16.207 115.127)" fill="#f26a94" fill-rule="evenodd"/>
      </g>
    </g>
    <g id="Group_90" data-name="Group 90" transform="translate(82.357 439.554)">
      <g id="Group_89" data-name="Group 89" clip-path="url(#clip-path)">
        <path id="Path_2569" data-name="Path 2569" d="M8.753,48.352A14.453,14.453,0,0,1,2.276,43.24,13.364,13.364,0,0,1,0,35.5V33.962a.81.81,0,0,1,.245-.6.81.81,0,0,1,.6-.245H8.823a.836.836,0,0,1,.84.84v1.05a5.721,5.721,0,0,0,2.591,4.727,11.481,11.481,0,0,0,7,1.926q3.711,0,5.532-1.576A4.942,4.942,0,0,0,26.61,36.2a3.921,3.921,0,0,0-1.12-2.836,9.927,9.927,0,0,0-3.046-2.031q-1.927-.875-6.127-2.416a59.946,59.946,0,0,1-7.948-3.291,15.956,15.956,0,0,1-5.462-4.587A11.525,11.525,0,0,1,.7,13.864,12.639,12.639,0,0,1,2.871,6.511,13.817,13.817,0,0,1,8.893,1.68,22.058,22.058,0,0,1,17.787,0,22.729,22.729,0,0,1,27.275,1.89a15.476,15.476,0,0,1,6.512,5.287,13.523,13.523,0,0,1,2.346,7.878v1.05a.836.836,0,0,1-.84.84H27.24a.836.836,0,0,1-.84-.84v-.56a6.362,6.362,0,0,0-2.416-5.007,9.859,9.859,0,0,0-6.618-2.066,8.375,8.375,0,0,0-5.147,1.4,4.56,4.56,0,0,0-1.856,3.851,4.2,4.2,0,0,0,1.086,2.941A9.506,9.506,0,0,0,14.671,18.8q2.135.945,6.617,2.556A82.723,82.723,0,0,1,29.1,24.578a15.575,15.575,0,0,1,5.112,4.167,10.935,10.935,0,0,1,2.276,7.178,12.539,12.539,0,0,1-4.832,10.4q-4.832,3.818-13.095,3.817a24.91,24.91,0,0,1-9.8-1.786" transform="translate(0 0.001)" fill="#f39e02"/>
        <path id="Path_2570" data-name="Path 2570" d="M198.021,51.325a.806.806,0,0,1-.245-.6V3.392a.837.837,0,0,1,.84-.841h8.193a.837.837,0,0,1,.84.841V50.729a.836.836,0,0,1-.84.84h-8.193a.806.806,0,0,1-.6-.245" transform="translate(-154.36 -1.991)" fill="#040504"/>
        <path id="Path_2571" data-name="Path 2571" d="M281.913,51.325a.806.806,0,0,1-.245-.6V3.392a.836.836,0,0,1,.84-.84h17.507a21.486,21.486,0,0,1,9.208,1.856,14.344,14.344,0,0,1,6.127,5.217,14.015,14.015,0,0,1,2.171,7.773V36.725a14.016,14.016,0,0,1-2.171,7.773,14.336,14.336,0,0,1-6.127,5.217,21.473,21.473,0,0,1-9.208,1.856H282.508a.807.807,0,0,1-.6-.245m9.979-8.228h8.473a6.755,6.755,0,0,0,5.217-2.171,8.506,8.506,0,0,0,2.066-5.812V19.008a8.254,8.254,0,0,0-2-5.812,6.925,6.925,0,0,0-5.357-2.171h-8.4a.309.309,0,0,0-.35.35V42.747a.309.309,0,0,0,.35.35" transform="translate(-219.837 -1.992)" fill="#f39e02"/>
        <path id="Path_2572" data-name="Path 2572" d="M512.6,10.78a.81.81,0,0,1-.6.245H489.033a.309.309,0,0,0-.35.35V22.229a.309.309,0,0,0,.35.35h15.056a.837.837,0,0,1,.84.84v6.793a.838.838,0,0,1-.84.841H489.033a.309.309,0,0,0-.35.35V42.747a.309.309,0,0,0,.35.35H512a.837.837,0,0,1,.84.84V50.73a.837.837,0,0,1-.84.84H479.649a.836.836,0,0,1-.84-.84V3.392a.836.836,0,0,1,.84-.84H512a.837.837,0,0,1,.84.84v6.792a.811.811,0,0,1-.245.6" transform="translate(-373.701 -1.992)" fill="#f39e02"/>
        <path id="Path_2573" data-name="Path 2573" d="M686.939,50.869l-2.1-6.863c-.094-.186-.21-.28-.35-.28H667.261c-.14,0-.257.094-.35.28l-2.031,6.863a.879.879,0,0,1-.91.7h-8.893a.783.783,0,0,1-.63-.245.765.765,0,0,1-.07-.735L669.5,3.251a.879.879,0,0,1,.91-.7h10.994a.88.88,0,0,1,.91.7l15.126,47.338a.794.794,0,0,1,.07.35q0,.63-.77.63h-8.893a.878.878,0,0,1-.91-.7M669.712,36.094h12.325q.42,0,.28-.42l-6.3-20.8c-.047-.186-.117-.268-.21-.245a.326.326,0,0,0-.21.245l-6.162,20.8q-.07.42.28.42" transform="translate(-510.685 -1.991)" fill="#f39e02"/>
        <path id="Path_2574" data-name="Path 2574" d="M865.9,48.352a14.452,14.452,0,0,1-6.478-5.112,13.366,13.366,0,0,1-2.276-7.738V33.962a.836.836,0,0,1,.84-.84h7.983a.836.836,0,0,1,.84.84v1.05a5.721,5.721,0,0,0,2.591,4.727,11.482,11.482,0,0,0,7,1.926q3.711,0,5.532-1.576a4.943,4.943,0,0,0,1.821-3.886,3.921,3.921,0,0,0-1.121-2.836,9.926,9.926,0,0,0-3.046-2.031q-1.927-.875-6.127-2.416a59.939,59.939,0,0,1-7.948-3.291,15.96,15.96,0,0,1-5.462-4.587,11.526,11.526,0,0,1-2.206-7.178,12.637,12.637,0,0,1,2.171-7.353,13.816,13.816,0,0,1,6.022-4.832A22.057,22.057,0,0,1,874.929,0a22.73,22.73,0,0,1,9.489,1.891,15.479,15.479,0,0,1,6.513,5.287,13.525,13.525,0,0,1,2.346,7.878v1.05a.837.837,0,0,1-.841.84h-8.053a.836.836,0,0,1-.84-.84v-.56a6.363,6.363,0,0,0-2.416-5.007,9.858,9.858,0,0,0-6.618-2.066,8.376,8.376,0,0,0-5.147,1.4,4.56,4.56,0,0,0-1.855,3.851,4.2,4.2,0,0,0,1.085,2.941,9.509,9.509,0,0,0,3.221,2.136q2.135.945,6.618,2.556a82.771,82.771,0,0,1,7.808,3.221,15.575,15.575,0,0,1,5.112,4.167,10.935,10.935,0,0,1,2.276,7.178,12.539,12.539,0,0,1-4.832,10.4q-4.832,3.818-13.1,3.817a24.909,24.909,0,0,1-9.8-1.786" transform="translate(-668.984 0.001)" fill="#f39e02"/>
      </g>
    </g>
  </g>
</svg>
