<svg xmlns="http://www.w3.org/2000/svg" width="8.997" height="7.918" viewBox="0 0 8.997 7.918">
  <g id="layer1" transform="translate(-4.009 -1040.362)">
    <g id="g5228" transform="translate(4.009 1040.362)">
      <path id="path3340" d="M4.547,4A.566.566,0,0,0,4.6,5.131h7.837a.565.565,0,1,0,0-1.131H4.547Zm0,3.393A.566.566,0,0,0,4.6,8.524h7.837a.565.565,0,1,0,0-1.131H4.547Zm0,3.393A.566.566,0,0,0,4.6,11.916h7.837a.565.565,0,1,0,0-1.131H4.547Z" transform="translate(-4.009 -3.999)"/>
    </g>
  </g>
</svg>
